<?xml version="1.0" encoding="UTF-8" standalone="no"?>
<!-- Created with Inkscape (http://www.inkscape.org/) -->

<svg
   xmlns:dc="http://purl.org/dc/elements/1.1/"
   xmlns:cc="http://creativecommons.org/ns#"
   xmlns:rdf="http://www.w3.org/1999/02/22-rdf-syntax-ns#"
   xmlns:svg="http://www.w3.org/2000/svg"
   xmlns="http://www.w3.org/2000/svg"
   xmlns:sodipodi="http://sodipodi.sourceforge.net/DTD/sodipodi-0.dtd"
   xmlns:inkscape="http://www.inkscape.org/namespaces/inkscape"
   width="640px"
   height="480px"
   id="svg2983"
   version="1.1"
   inkscape:version="0.48.2 r9819"
   sodipodi:docname="grub-splash.svg"
   inkscape:export-filename="/home/pankso/Projects/slitaz-configs/images/grub-splash.png"
   inkscape:export-xdpi="90"
   inkscape:export-ydpi="90">
  <defs
     id="defs2985" />
  <sodipodi:namedview
     id="base"
     pagecolor="#ffffff"
     bordercolor="#666666"
     borderopacity="1.0"
     inkscape:pageopacity="0.0"
     inkscape:pageshadow="2"
     inkscape:zoom="0.77472527"
     inkscape:cx="320"
     inkscape:cy="240"
     inkscape:current-layer="layer1"
     inkscape:document-units="px"
     showgrid="false"
     inkscape:window-width="1092"
     inkscape:window-height="697"
     inkscape:window-x="73"
     inkscape:window-y="56"
     inkscape:window-maximized="0" />
  <metadata
     id="metadata2988">
    <rdf:RDF>
      <cc:Work
         rdf:about="">
        <dc:format>image/svg+xml</dc:format>
        <dc:type
           rdf:resource="http://purl.org/dc/dcmitype/StillImage" />
        <dc:title></dc:title>
      </cc:Work>
    </rdf:RDF>
  </metadata>
  <g
     id="layer1"
     inkscape:label="Layer 1"
     inkscape:groupmode="layer">
    <rect
       style="fill:#351a0a;fill-opacity:1"
       id="rect3779"
       width="640"
       height="480"
       x="1.1148602e-05"
       y="1.2102276e-05" />
  </g>
  <g
     inkscape:groupmode="layer"
     id="layer4"
     inkscape:label="Spider">
    <g
       style="fill:#d66018;fill-opacity:1;display:inline"
       id="layer1-6"
       inkscape:label="Calque 1"
       transform="matrix(0.34137314,0,0,0.34137314,189.60731,66.3095)">
      <path
         inkscape:export-ydpi="90"
         inkscape:export-xdpi="90"
         id="path2158"
         d="m 462.20953,828.56443 c 3.27883,-4.62884 16.02577,-21.61916 28.3265,-37.75626 27.35749,-35.88977 42.95397,-64.01193 56.62946,-102.10885 16.11821,-44.90186 15.33507,-48.02812 -18.38575,-73.39404 -30.73438,-23.11942 -54.6772,-38.60513 -59.7258,-38.62936 -1.70031,-0.008 -1.9239,11.38092 -0.49691,25.30912 7.66665,74.83129 -34.46075,161.51035 -92.05704,189.4115 -19.14622,9.27491 -52.92313,10.3624 -68.49356,2.2052 -55.62622,-29.14201 -70.82615,-119.51432 -34.64944,-206.01124 1.97179,-4.71446 1.10016,-6.9551 -2.70556,-6.9551 -7.72964,0 -91.43675,50.093 -97.57522,58.39212 -7.54109,10.19543 -6.07576,63.18388 2.69575,97.47995 4.21497,16.4806 14.99815,44.93482 23.96256,63.23166 l 16.29893,33.26694 -22.2689,-23.81883 C 163.63424,776.95987 135.49139,718.366 124.69828,665.39013 l -7.95583,-39.04981 10.57342,-8.72618 c 5.81538,-4.79941 26.45513,-17.3186 45.86615,-27.8204 46.91202,-25.38051 51.69593,-31.18062 22.74663,-27.57846 -71.38959,8.88301 -83.74259,11.51986 -87.58283,18.69541 -7.65697,14.30717 -20.34133,101.54595 -20.185177,138.82664 0.146444,34.95507 -0.26446,36.97951 -5.53804,27.28661 -3.132931,-5.75835 -9.563262,-24.5371 -14.289585,-41.73059 -7.642902,-27.80337 -8.320618,-37.41496 -6.12739,-86.90173 3.348253,-75.54833 3.592782,-76.36328 23.844814,-79.45777 9.064659,-1.38509 32.577268,-4.99884 52.250268,-8.03057 19.67299,-3.0318 45.15844,-6.66355 56.63436,-8.0706 20.79013,-2.54908 27.12737,-8.0844 13.9102,-12.14992 -22.17917,-6.82211 -113.046175,-43.33554 -114.764849,-46.11632 -3.384715,-5.47662 6.136019,-30.36077 30.426339,-79.52459 16.43272,-33.25991 31.31129,-56.31448 52.09783,-80.7262 16.00284,-18.79373 29.66005,-32.47852 30.34935,-30.41059 0.68933,2.06797 -4.95095,15.14488 -12.53385,29.05979 -15.78638,28.96847 -50.62827,128.74394 -47.65943,136.48063 2.09896,5.46981 103.80709,44.15789 107.19119,40.77373 1.09295,-1.09295 -13.74656,-15.26819 -32.97671,-31.50052 -19.23011,-16.23235 -35.49444,-32.26851 -36.14291,-35.63588 -0.6485,-3.36735 8.23588,-22.04055 19.74317,-41.49593 15.12784,-25.57685 32.51253,-46.9307 62.77212,-77.10408 23.0174,-22.95181 48.10946,-45.17688 55.76006,-49.38908 l 13.9102,-7.65852 -16.60712,18.19123 c -38.5459,42.22269 -69.87455,92.2889 -80.98848,129.42754 l -5.1011,17.04581 17.56646,18.05388 c 24.53723,25.21813 66.39511,58.14369 70.6076,55.54021 1.93281,-1.19453 4.49672,-9.49721 5.69757,-18.45037 3.21187,-23.946 19.39824,-45.67989 42.88357,-57.58081 28.62822,-14.50703 48.12913,-10.35453 69.24981,14.746 9.8514,11.70769 10.63855,15.10064 9.24101,39.83298 -0.84018,14.86937 -0.18357,27.0352 1.45915,27.0352 7.24979,0 103.37345,-66.52829 111.75283,-77.34537 4.94791,-6.38742 0.097,-48.96603 -8.87389,-77.88912 -4.44694,-14.33763 -16.88922,-40.71665 -27.64951,-58.62006 -18.05996,-30.04901 -18.69214,-31.93072 -8.22229,-24.47557 30.89324,21.99793 68.69169,80.35998 85.52775,132.05762 11.12499,34.16097 11.14961,34.46461 3.48367,42.96661 -4.24629,4.70934 -25.52394,20.31062 -47.28367,34.66949 -21.75978,14.35886 -37.48724,26.79898 -34.94994,27.64476 7.62003,2.53999 104.85218,-31.33462 112.82436,-39.3068 4.21686,-4.21686 7.36589,-12.94348 7.32901,-20.31027 -0.15994,-31.93938 -8.00254,-102.6161 -13.93006,-125.53613 -3.58217,-13.85118 -5.70578,-25.99125 -4.71911,-26.97791 2.63393,-2.63391 24.67673,32.88341 36.07264,58.12343 12.18848,26.99531 27.31556,99.92125 25.62516,123.53556 l -1.2534,17.50939 -45.70491,16.73438 c -25.13771,9.20385 -56.053,19.75116 -68.70063,23.43844 -25.07364,7.30987 -28.03345,14.86927 -6.5058,16.61583 29.75049,2.41373 117.1517,17.49963 120.50322,20.79949 4.56143,4.49108 -6.26923,59.50562 -20.90537,106.18941 -10.12647,32.29965 -45.77807,100.43202 -52.55302,100.43202 -1.53981,0 0.49466,-10.58449 4.52097,-23.52115 13.58929,-43.66239 25.12989,-143.79357 17.39948,-150.96479 -2.03209,-1.88507 -18.89656,-5.50916 -37.47662,-8.05349 -18.58004,-2.54434 -39.59435,-5.63573 -46.69849,-6.86983 -18.11856,-3.14737 -16.43693,4.20513 3.97434,17.37661 40.75384,26.29865 58.62153,41.32995 58.62153,49.31572 0,12.80425 -34.6485,76.69079 -58.65187,108.14504 -11.95437,15.66515 -31.81626,38.90384 -44.13757,51.64157 -26.19844,27.0839 -57.45785,52.98197 -48.23553,39.96268 z"
         style="fill:#d66018;fill-opacity:1"
         inkscape:connector-curvature="0" />
    </g>
  </g>
  <g
     inkscape:label="Spider copy"
     id="g3785"
     inkscape:groupmode="layer" />
</svg>
